<?xml version="1.0" encoding="UTF-8"?>
<svg width="750pt" height="750pt" version="1.2" viewBox="0 0 750 750" xmlns="http://www.w3.org/2000/svg">
 <defs>
  <clipPath id="clip1">
   <path d="m6 7h736v735h-736z"/>
  </clipPath>
  <clipPath id="clip2">
   <path d="m272.08 7.9219c-5.2188 0-12.359 0.89844-21.238 2.7578-8.9414 1.8008-18.18 4.5586-27.602 8.2812-9.4766 3.6602-18.238 8.2188-26.398 13.801-8.2109 5.457-13.852 11.938-16.969 19.258-1.5625 3.1797-2.043 6.8398-1.1992 11.039 0.83984 4.2031 1.7383 7.8711 2.7578 10.992 0.53906 3.1797 1.1406 8.3984 1.9805 15.777 0.83984 7.3203 0.83984 15.543 0 24.48-0.83984 8.8828-2.6406 17.941-5.582 27.18-2.8789 9.2422-7.5 16.98-13.797 23.281-13.141 12.66-28.203 20.102-45.301 22.5-17.102 2.2812-33.477 0.35938-49.254-5.9414-4.7422-1.5586-9-2.6367-12.961-3.1172-4.0195-0.53906-8.0391 0.48047-12.238 3.1172-5.2188 3.1211-10.02 7.9219-14.52 14.531-4.5 6.6016-8.457 13.859-11.879 21.719-3.3594 7.8633-6.1797 16.023-8.2773 24.422-2.1016 8.3984-3.1211 16.078-3.1211 22.859 0 6.3008 1.5586 12.48 4.7383 18.539 3.1211 6 7.082 9.8398 11.82 11.402 15.777 6.3008 29.938 16.32 42.598 30.008 12.598 13.68 18.898 29.703 18.898 48.062 0 17.879-6.3008 34.02-18.898 48.48-12.66 14.457-26.82 24.848-42.598 31.148-8.9414 3.1211-14.16 10.5-15.719 22.02-1.082 6.3008-0.53906 14.34 1.5586 24.059 2.1016 9.7812 5.1016 19.262 8.8789 28.383 3.9609 9.1797 8.3984 17.52 13.379 25.199 4.9805 7.5703 10.379 12.488 16.141 14.59 7.3789 3.1211 14.699 3.6602 22.078 1.5586 11.52-3.7188 22.859-5.8203 33.895-6.2969 9.4219-0.54297 19.379 0.35938 29.879 2.7578 10.5 2.4023 19.441 7.5 26.762 15.359 12.121 13.141 18.84 27.48 20.16 42.961 1.3203 15.539-0.90234 29.344-6.7227 41.465-4.1992 8.8789-6.2383 15.781-5.9375 20.82 0.30078 4.9219 1.7383 9.3008 4.3789 12.961 3.6602 5.2812 9.2422 10.5 16.559 15.781 7.3711 5.2227 15.594 9.8438 24.832 13.801 9.2383 3.9023 18.359 7.1992 27.602 9.8438 9.2383 2.5781 17.457 3.957 24.84 3.957 6.2969 0 12.059-1.4375 17.277-4.3789 5.2812-2.8789 9.2422-7.5 11.883-13.801 5.7578-15.723 15.898-29.523 30.348-41.402 14.402-11.762 30.602-17.703 48.48-17.703 18.359 0 34.5 5.8789 48.422 17.703 13.969 11.82 23.75 25.859 29.566 42.184h0.78125c1.6211 4.1992 4.5 8.1602 8.6992 11.82 4.2031 3.7188 8.7031 5.5781 13.441 5.5781 6.8398 0 14.699-1.0781 23.641-3.1797 9-2.0977 17.461-4.9805 25.68-8.6992 8.1602-3.6602 15.66-7.7422 22.5-12.242 6.7812-4.3789 11.809-8.7617 14.988-12.961 6.9023-10.5 7.6211-21 2.4023-31.504-6.832-15.18-9.2305-31.262-7.1328-48.062 2.0938-16.801 9.4102-31.801 22.012-44.941 5.8789-6.3008 12.781-10.801 20.941-13.379 8.1602-2.6406 16.258-4.3203 24.48-5.1602 8.1602-0.71875 16.199-0.48047 24.059 0.83984 7.8594 1.3789 14.461 2.7617 19.738 4.3789 5.7617 2.1016 10.98 3.1211 15.711 3.1211 4.7422 0 10.262-1.5586 16.559-4.6797 6.3008-3.1797 12.121-8.4102 17.344-15.789 5.2773-7.3203 9.7773-15.602 13.438-24.84 3.6602-9.1797 6.3008-18.301 7.8594-27.242 1.6797-8.8789 1.8594-16.559 0.83984-22.859-2.0977-7.3203-6.1172-13.32-11.938-18-2.6406-2.0977-5.7617-4.1992-9.4219-6.3008-15.777-5.7578-28.5-15.367-38.277-28.809-9.6523-13.32-14.57-28.98-14.57-46.859 0-18.359 5.8203-34.801 17.328-49.262 11.582-14.527 25.5-24.609 41.82-30.43 4.1992-1.5586 8.2188-4.7383 12.18-9.7812 3.9609-5.0391 5.3984-12 4.3789-20.938-2.0977-15.242-6.1797-30.301-12.238-45.301-6-15-12.961-26.16-20.82-33.551-4.1992-4.1992-9.3008-6.5977-15.422-7.0781-6.0586-0.53906-11.156 0.48047-15.348 3.1172-15.719 7.3203-32.879 10.453-51.242 9.0625-18.359-1.2617-33.898-8.2188-46.5-20.82-12.598-12.66-20.219-27.422-22.848-44.219-2.6406-16.801-0.53906-32.82 6.2891-48.062 1.082-2.0977 2.1016-5.5781 3.1211-10.629 1.0195-5.0391 0.23828-9.6016-2.3398-13.801-4.1992-6.8398-9.832-13.141-16.973-18.898-7.1367-5.8203-14.816-10.5-23.219-14.16-8.5195-3.7227-16.98-6.6602-25.68-8.7617-8.6992-2.0977-16.738-3.1172-24.059-3.1172-4.7422 0-9.3008 2.1562-13.801 6.6562-4.4414 4.4414-7.7422 8.7617-9.8398 12.961-5.7617 15.781-15.77 28.742-29.93 39-14.223 10.332-30.48 15.43-48.902 15.43-17.82 0-33.359-5.3398-46.5-16.148-13.07-10.742-22.547-23.219-28.309-37.441-1.6211-4.6797-4.3203-9.3008-8.2812-13.801-3.8984-4.3789-9.2969-6.6562-16.141-6.6562zm101.87 134.35c128.39 0 232.48 104.11 232.48 232.52 0 128.41-104.09 232.52-232.48 232.52s-232.48-104.11-232.48-232.52c0-128.41 104.09-232.52 232.48-232.52z"/>
  </clipPath>
  <linearGradient id="linear0" x1="373.93" x2="373.93" y1="742.08" y2="8.28" gradientTransform="matrix(1,0,0,-1,0,750)" gradientUnits="userSpaceOnUse">
   <stop stop-color="#5f82ca" offset="0"/>
   <stop stop-color="#5f82ca" offset=".0078125"/>
   <stop stop-color="#5f82ca" offset=".015625"/>
   <stop stop-color="#5e82ca" offset=".023438"/>
   <stop stop-color="#5e81ca" offset=".03125"/>
   <stop stop-color="#5d81ca" offset=".039062"/>
   <stop stop-color="#5d81ca" offset=".046875"/>
   <stop stop-color="#5c81ca" offset=".054688"/>
   <stop stop-color="#5c80ca" offset=".0625"/>
   <stop stop-color="#5b80ca" offset=".070312"/>
   <stop stop-color="#5a80ca" offset=".078125"/>
   <stop stop-color="#5a7fca" offset=".085938"/>
   <stop stop-color="#597fca" offset=".09375"/>
   <stop stop-color="#597fca" offset=".10156"/>
   <stop stop-color="#587eca" offset=".10938"/>
   <stop stop-color="#587eca" offset=".11719"/>
   <stop stop-color="#577eca" offset=".125"/>
   <stop stop-color="#577eca" offset=".13281"/>
   <stop stop-color="#567dca" offset=".14062"/>
   <stop stop-color="#567dca" offset=".14844"/>
   <stop stop-color="#557dca" offset=".15625"/>
   <stop stop-color="#557cca" offset=".16406"/>
   <stop stop-color="#547cca" offset=".17188"/>
   <stop stop-color="#547cca" offset=".17969"/>
   <stop stop-color="#537cca" offset=".1875"/>
   <stop stop-color="#527bca" offset=".19531"/>
   <stop stop-color="#527bca" offset=".20312"/>
   <stop stop-color="#517bca" offset=".21094"/>
   <stop stop-color="#517aca" offset=".21875"/>
   <stop stop-color="#507aca" offset=".22656"/>
   <stop stop-color="#507aca" offset=".23438"/>
   <stop stop-color="#4f79ca" offset=".24219"/>
   <stop stop-color="#4f79ca" offset=".25"/>
   <stop stop-color="#4e79ca" offset=".25781"/>
   <stop stop-color="#4e79ca" offset=".26562"/>
   <stop stop-color="#4d78ca" offset=".27344"/>
   <stop stop-color="#4d78ca" offset=".28125"/>
   <stop stop-color="#4c78ca" offset=".28906"/>
   <stop stop-color="#4c77ca" offset=".29688"/>
   <stop stop-color="#4b77ca" offset=".30469"/>
   <stop stop-color="#4b77ca" offset=".3125"/>
   <stop stop-color="#4a76ca" offset=".32031"/>
   <stop stop-color="#4976ca" offset=".32812"/>
   <stop stop-color="#4976ca" offset=".33594"/>
   <stop stop-color="#4876ca" offset=".34375"/>
   <stop stop-color="#4875ca" offset=".35156"/>
   <stop stop-color="#4775ca" offset=".35938"/>
   <stop stop-color="#4775ca" offset=".36719"/>
   <stop stop-color="#4674ca" offset=".375"/>
   <stop stop-color="#4674ca" offset=".38281"/>
   <stop stop-color="#4574ca" offset=".39062"/>
   <stop stop-color="#4574ca" offset=".39844"/>
   <stop stop-color="#4473ca" offset=".40625"/>
   <stop stop-color="#4473ca" offset=".41406"/>
   <stop stop-color="#4373ca" offset=".42188"/>
   <stop stop-color="#4372ca" offset=".42969"/>
   <stop stop-color="#4272ca" offset=".4375"/>
   <stop stop-color="#4172ca" offset=".44531"/>
   <stop stop-color="#4171ca" offset=".45312"/>
   <stop stop-color="#4071ca" offset=".46094"/>
   <stop stop-color="#4071ca" offset=".46875"/>
   <stop stop-color="#3f71ca" offset=".47656"/>
   <stop stop-color="#3f70ca" offset=".48438"/>
   <stop stop-color="#3e70ca" offset=".49219"/>
   <stop stop-color="#3e70ca" offset=".5"/>
   <stop stop-color="#3d6fc9" offset=".51562"/>
   <stop stop-color="#3d6fc9" offset=".53125"/>
   <stop stop-color="#3c6ec8" offset=".54688"/>
   <stop stop-color="#3c6ec8" offset=".5625"/>
   <stop stop-color="#3b6dc7" offset=".57812"/>
   <stop stop-color="#3b6dc7" offset=".59375"/>
   <stop stop-color="#3a6cc6" offset=".60938"/>
   <stop stop-color="#3a6cc6" offset=".625"/>
   <stop stop-color="#396cc5" offset=".64062"/>
   <stop stop-color="#396bc5" offset=".65625"/>
   <stop stop-color="#386bc4" offset=".67188"/>
   <stop stop-color="#386ac4" offset=".6875"/>
   <stop stop-color="#376ac3" offset=".70312"/>
   <stop stop-color="#3769c3" offset=".71875"/>
   <stop stop-color="#3669c2" offset=".73438"/>
   <stop stop-color="#3668c2" offset=".75"/>
   <stop stop-color="#3568c1" offset=".76562"/>
   <stop stop-color="#3567c1" offset=".78125"/>
   <stop stop-color="#3467c0" offset=".79688"/>
   <stop stop-color="#3466c0" offset=".8125"/>
   <stop stop-color="#3366bf" offset=".82812"/>
   <stop stop-color="#3365bf" offset=".84375"/>
   <stop stop-color="#3265be" offset=".85938"/>
   <stop stop-color="#3264be" offset=".875"/>
   <stop stop-color="#3164bd" offset=".89062"/>
   <stop stop-color="#3164bd" offset=".90625"/>
   <stop stop-color="#3063bc" offset=".92188"/>
   <stop stop-color="#3063bc" offset=".9375"/>
   <stop stop-color="#2f62bb" offset=".95312"/>
   <stop stop-color="#2f62bb" offset=".96875"/>
   <stop stop-color="#2e61ba" offset=".98438"/>
   <stop stop-color="#2e61ba" offset="1"/>
  </linearGradient>
 </defs>
 <g fill-rule="evenodd">
  <path d="m539.64 202.76 36.539 26.816 35.102 84.602 0.52734 16.359-0.37891 2.1914c-2.1406 14.418-3.2383 29.078-3.2383 43.871 0 13.727 0.94922 27.348 2.7969 40.77l1.1914 7.418v45.09l-36 51.301-33.508 47.148-81.023-90.207 35.441-31.832-0.23828-0.64062c-6.8008-21.82-10.461-45.008-10.461-69.047 0-16.031 1.6289-31.68 4.7305-46.801l5.4883-21.289-22.719-16.793z" fill="#fff1cb"/>
  <path d="m466.61 149.16 80.902 59.371-2.3398 3.3594c-31.922 48.289-49.48 105.37-49.48 164.52 0 64.078 20.609 125.73 57.758 176.4l0.12891 0.16016-30.5 42.902-14.406 6.1484-19.07 0.96875c-8.0625 0-16.023-0.41016-23.863-1.207l-6.207-0.95312-110.38-122.9 35.441-31.828-0.23828-0.64062c-6.8008-21.812-10.461-45.012-10.461-69.051 0-16.031 1.6289-31.68 4.7305-46.801l5.4883-21.289-22.719-16.789z" fill="#ffe698"/>
  <path d="m375 141.64c32.219 0 62.922 6.5312 90.84 18.328l9.3398 4.5117-8.0195 7.6797c-54.84 55.578-86.07 130.76-86.07 209.63 0 73.23 26.922 143.29 74.68 197.42l10.082 10.809-0.011718 0.011719c-27.918 11.797-58.621 18.34-90.84 18.34-8.0586 0-16.02-0.41016-23.859-1.2109l-6.2109-0.94922-110.38-122.9 35.438-31.828-0.23828-0.64062c-6.8008-21.82-10.461-45.012-10.461-69.051 0-16.027 1.6328-31.68 4.7305-46.801l5.4922-21.289-22.723-16.789 114.44-154.84 1.7578-0.12891c3.9805-0.20312 7.9805-0.30078 12.012-0.30078z" fill="#ffd965"/>
  <path d="m375 607.56c-128.57 0-232.8-103.96-232.8-232.2 0-128.24 104.23-232.2 232.8-232.2-128.57 103.91-148.35 292.1-44.172 420.34 13.141 16.18 27.953 30.949 44.172 44.059z" fill="#ffc000"/>
 </g>
 <g clip-path="url(#clip1)">
  <g clip-path="url(#clip2)" clip-rule="evenodd">
   <path d="m6.2383 741.72v-733.8h735.84v733.8z" fill="url(#linear0)"/>
  </g>
 </g>
 <path transform="matrix(1,0,0,-1,0,750)" d="m272.08 742.08c-5.2188 0-12.359-0.89844-21.238-2.7578-8.9414-1.8008-18.18-4.5586-27.602-8.2812-9.4766-3.6602-18.238-8.2188-26.398-13.801-8.2109-5.457-13.852-11.938-16.969-19.258-1.5625-3.1797-2.043-6.8398-1.1992-11.039 0.83984-4.2031 1.7383-7.8711 2.7578-10.992 0.53906-3.1797 1.1406-8.3984 1.9805-15.777 0.83984-7.3203 0.83984-15.543 0-24.48-0.83984-8.8828-2.6406-17.941-5.582-27.18-2.8789-9.2422-7.5-16.98-13.797-23.281-13.141-12.66-28.203-20.102-45.301-22.5-17.102-2.2812-33.477-0.35938-49.254 5.9414-4.7422 1.5586-9 2.6367-12.961 3.1172-4.0195 0.53906-8.0391-0.48047-12.238-3.1172-5.2188-3.1211-10.02-7.9219-14.52-14.531-4.5-6.6016-8.457-13.859-11.879-21.719-3.3594-7.8633-6.1797-16.023-8.2773-24.422-2.1016-8.3984-3.1211-16.078-3.1211-22.859 0-6.3008 1.5586-12.48 4.7383-18.539 3.1211-6 7.082-9.8398 11.82-11.402 15.777-6.3008 29.938-16.32 42.598-30.008 12.598-13.68 18.898-29.703 18.898-48.062 0-17.879-6.3008-34.02-18.898-48.48-12.66-14.457-26.82-24.848-42.598-31.148-8.9414-3.1211-14.16-10.5-15.719-22.02-1.082-6.3008-0.53906-14.34 1.5586-24.059 2.1016-9.7812 5.1016-19.262 8.8789-28.383 3.9609-9.1797 8.3984-17.52 13.379-25.199 4.9805-7.5703 10.379-12.488 16.141-14.59 7.3789-3.1211 14.699-3.6602 22.078-1.5586 11.52 3.7188 22.859 5.8203 33.895 6.2969 9.4219 0.54297 19.379-0.35938 29.879-2.7578 10.5-2.4023 19.441-7.5 26.762-15.359 12.121-13.141 18.84-27.48 20.16-42.961 1.3203-15.539-0.90234-29.344-6.7227-41.465-4.1992-8.8789-6.2383-15.781-5.9375-20.82 0.30078-4.9219 1.7383-9.3008 4.3789-12.961 3.6602-5.2812 9.2422-10.5 16.559-15.781 7.3711-5.2227 15.594-9.8438 24.832-13.801 9.2383-3.9023 18.359-7.1992 27.602-9.8438 9.2383-2.5781 17.457-3.957 24.84-3.957 6.2969 0 12.059 1.4375 17.277 4.3789 5.2812 2.8789 9.2422 7.5 11.883 13.801 5.7578 15.723 15.898 29.523 30.348 41.402 14.402 11.762 30.602 17.703 48.48 17.703 18.359 0 34.5-5.8789 48.422-17.703 13.969-11.82 23.75-25.859 29.566-42.184h0.78125c1.6211-4.1992 4.5-8.1602 8.6992-11.82 4.2031-3.7188 8.7031-5.5781 13.441-5.5781 6.8398 0 14.699 1.0781 23.641 3.1797 9 2.0977 17.461 4.9805 25.68 8.6992 8.1602 3.6602 15.66 7.7422 22.5 12.242 6.7812 4.3789 11.809 8.7617 14.988 12.961 6.9023 10.5 7.6211 21 2.4023 31.504-6.832 15.18-9.2305 31.262-7.1328 48.062 2.0938 16.801 9.4102 31.801 22.012 44.941 5.8789 6.3008 12.781 10.801 20.941 13.379 8.1602 2.6406 16.258 4.3203 24.48 5.1602 8.1602 0.71875 16.199 0.48047 24.059-0.83984 7.8594-1.3789 14.461-2.7617 19.738-4.3789 5.7617-2.1016 10.98-3.1211 15.711-3.1211 4.7422 0 10.262 1.5586 16.559 4.6797 6.3008 3.1797 12.121 8.4102 17.344 15.789 5.2773 7.3203 9.7773 15.602 13.438 24.84 3.6602 9.1797 6.3008 18.301 7.8594 27.242 1.6797 8.8789 1.8594 16.559 0.83984 22.859-2.0977 7.3203-6.1172 13.32-11.938 18-2.6406 2.0977-5.7617 4.1992-9.4219 6.3008-15.777 5.7578-28.5 15.367-38.277 28.809-9.6523 13.32-14.57 28.98-14.57 46.859 0 18.359 5.8203 34.801 17.328 49.262 11.582 14.527 25.5 24.609 41.82 30.43 4.1992 1.5586 8.2188 4.7383 12.18 9.7812 3.9609 5.0391 5.3984 12 4.3789 20.938-2.0977 15.242-6.1797 30.301-12.238 45.301-6 15-12.961 26.16-20.82 33.551-4.1992 4.1992-9.3008 6.5977-15.422 7.0781-6.0586 0.53906-11.156-0.48047-15.348-3.1172-15.719-7.3203-32.879-10.453-51.242-9.0625-18.359 1.2617-33.898 8.2188-46.5 20.82-12.598 12.66-20.219 27.422-22.848 44.219-2.6406 16.801-0.53906 32.82 6.2891 48.062 1.082 2.0977 2.1016 5.5781 3.1211 10.629 1.0195 5.0391 0.23828 9.6016-2.3398 13.801-4.1992 6.8398-9.832 13.141-16.973 18.898-7.1367 5.8203-14.816 10.5-23.219 14.16-8.5195 3.7227-16.98 6.6602-25.68 8.7617-8.6992 2.0977-16.738 3.1172-24.059 3.1172-4.7422 0-9.3008-2.1562-13.801-6.6562-4.4414-4.4414-7.7422-8.7617-9.8398-12.961-5.7617-15.781-15.77-28.742-29.93-39-14.223-10.332-30.48-15.43-48.902-15.43-17.82 0-33.359 5.3398-46.5 16.148-13.07 10.742-22.547 23.219-28.309 37.441-1.6211 4.6797-4.3203 9.3008-8.2812 13.801-3.8984 4.3789-9.2969 6.6562-16.141 6.6562zm101.87-134.35c128.39 0 232.48-104.11 232.48-232.52 0-128.41-104.09-232.52-232.48-232.52s-232.48 104.11-232.48 232.52c0 128.41 104.09 232.52 232.48 232.52z" fill="none" stroke="#4471c4" stroke-miterlimit="10" stroke-width=".5"/>
</svg>
