<?xml version="1.0" encoding="UTF-8" standalone="no"?><svg xmlns="http://www.w3.org/2000/svg" xmlns:xlink="http://www.w3.org/1999/xlink" contentScriptType="application/ecmascript" contentStyleType="text/css" height="212px" preserveAspectRatio="none" style="width:271px;height:212px;background:#00000000;" version="1.1" viewBox="0 0 271 212" width="271px" zoomAndPan="magnify"><defs><filter height="300%" id="f6u7c10dw6b00" width="300%" x="-1" y="-1"><feGaussianBlur result="blurOut" stdDeviation="2.0"/><feColorMatrix in="blurOut" result="blurOut2" type="matrix" values="0 0 0 0 0 0 0 0 0 0 0 0 0 0 0 0 0 0 .4 0"/><feOffset dx="4.0" dy="4.0" in="blurOut2" result="blurOut3"/><feBlend in="SourceGraphic" in2="blurOut3" mode="normal"/></filter></defs><g><!--MD5=[5eb1a3cb345904fe8a49b0f305158775]
class FileDocumentationPartHeading--><rect codeLine="4" fill="#FEFECE" filter="url(#f6u7c10dw6b00)" height="78.4141" id="FileDocumentationPartHeading" style="stroke:#A80036;stroke-width:1.5;" width="226" x="19" y="120"/><ellipse cx="34" cy="136" fill="#B4A7E5" rx="11" ry="11" style="stroke:#A80036;stroke-width:1.0;"/><path d="M29.9219,131.7656 L29.9219,129.6094 L37.3125,129.6094 L37.3125,131.7656 L34.8438,131.7656 L34.8438,139.8438 L37.3125,139.8438 L37.3125,142 L29.9219,142 L29.9219,139.8438 L32.3906,139.8438 L32.3906,131.7656 L29.9219,131.7656 Z " fill="#000000"/><text fill="#000000" font-family="sans-serif" font-size="12" font-style="italic" lengthAdjust="spacing" textLength="194" x="48" y="140.1543">FileDocumentationPartHeading</text><line style="stroke:#A80036;stroke-width:1.5;" x1="20" x2="244" y1="152" y2="152"/><ellipse cx="30" cy="163" rx="3" ry="3" style="stroke:#038048;stroke-width:1.0;fill:none;"/><text fill="#000000" font-family="sans-serif" font-size="11" lengthAdjust="spacing" textLength="108" x="39" y="166.2104">description : string</text><ellipse cx="30" cy="175.8047" rx="3" ry="3" style="stroke:#038048;stroke-width:1.0;fill:none;"/><text fill="#000000" font-family="sans-serif" font-size="11" lengthAdjust="spacing" textLength="66" x="39" y="179.0151">title : string</text><ellipse cx="30" cy="188.6094" rx="3" ry="3" style="stroke:#038048;stroke-width:1.0;fill:none;"/><text fill="#000000" font-family="sans-serif" font-size="11" lengthAdjust="spacing" textLength="86" x="39" y="191.8198">type : HEADING</text><!--MD5=[ea3dc4d16b8bd45a754bc8328edf72de]
class FileDocumentationPart<HEADING>--><rect codeLine="9" fill="#FEFECE" filter="url(#f6u7c10dw6b00)" height="52.8047" id="FileDocumentationPart&lt;HEADING&gt;" style="stroke:#A80036;stroke-width:1.5;" width="250" x="7" y="7"/><ellipse cx="22" cy="23" fill="#B4A7E5" rx="11" ry="11" style="stroke:#A80036;stroke-width:1.0;"/><path d="M17.9219,18.7656 L17.9219,16.6094 L25.3125,16.6094 L25.3125,18.7656 L22.8438,18.7656 L22.8438,26.8438 L25.3125,26.8438 L25.3125,29 L17.9219,29 L17.9219,26.8438 L20.3906,26.8438 L20.3906,18.7656 L17.9219,18.7656 Z " fill="#000000"/><text fill="#000000" font-family="sans-serif" font-size="12" font-style="italic" lengthAdjust="spacing" textLength="218" x="36" y="27.1543">FileDocumentationPart&lt;HEADING&gt;</text><line style="stroke:#A80036;stroke-width:1.5;" x1="8" x2="256" y1="39" y2="39"/><ellipse cx="18" cy="50" rx="3" ry="3" style="stroke:#038048;stroke-width:1.0;fill:none;"/><text fill="#000000" font-family="sans-serif" font-size="11" lengthAdjust="spacing" textLength="86" x="27" y="53.2104">type : HEADING</text><!--MD5=[bb277701fb8d4a590e307791e1bf38b0]
reverse link FileDocumentationPart<HEADING> to FileDocumentationPartHeading--><path codeLine="12" d="M132,80.49 C132,93.42 132,107.35 132,119.77 " fill="none" id="FileDocumentationPart&lt;HEADING&gt;-backto-FileDocumentationPartHeading" style="stroke:#A80036;stroke-width:1.0;"/><polygon fill="none" points="125,80.09,132,60.09,139,80.09,125,80.09" style="stroke:#A80036;stroke-width:1.0;"/><!--MD5=[fa4e4ab47643e8b118dfc6b0e67cc553]
@startuml
skinparam BackgroundColor transparent
hide empty methods
hide empty fields
interface "FileDocumentationPartHeading" {
    +description : string
    +title : string
    +type : HEADING
}
interface "FileDocumentationPart<HEADING>" {
    +type : HEADING
}
"FileDocumentationPart<HEADING>" <|- - "FileDocumentationPartHeading"
@enduml

PlantUML version 1.2021.14(Fri Nov 12 16:46:50 UTC 2021)
(GPL source distribution)
Java Runtime: OpenJDK Runtime Environment
JVM: OpenJDK 64-Bit Server VM
Default Encoding: UTF-8
Language: en
Country: null
--></g></svg>