<?xml version="1.0" encoding="UTF-8" standalone="no"?><svg xmlns="http://www.w3.org/2000/svg" xmlns:xlink="http://www.w3.org/1999/xlink" contentScriptType="application/ecmascript" contentStyleType="text/css" height="212px" preserveAspectRatio="none" style="width:245px;height:212px;background:#00000000;" version="1.1" viewBox="0 0 245 212" width="245px" zoomAndPan="magnify"><defs><filter height="300%" id="f1b815svl6yelj" width="300%" x="-1" y="-1"><feGaussianBlur result="blurOut" stdDeviation="2.0"/><feColorMatrix in="blurOut" result="blurOut2" type="matrix" values="0 0 0 0 0 0 0 0 0 0 0 0 0 0 0 0 0 0 .4 0"/><feOffset dx="4.0" dy="4.0" in="blurOut2" result="blurOut3"/><feBlend in="SourceGraphic" in2="blurOut3" mode="normal"/></filter></defs><g><!--MD5=[eb191c896baf6c634748b69102146bfc]
class FileDocumentationPartText--><rect codeLine="4" fill="#FEFECE" filter="url(#f1b815svl6yelj)" height="78.4141" id="FileDocumentationPartText" style="stroke:#A80036;stroke-width:1.5;" width="201" x="18.5" y="120"/><ellipse cx="33.5" cy="136" fill="#B4A7E5" rx="11" ry="11" style="stroke:#A80036;stroke-width:1.0;"/><path d="M29.4219,131.7656 L29.4219,129.6094 L36.8125,129.6094 L36.8125,131.7656 L34.3438,131.7656 L34.3438,139.8438 L36.8125,139.8438 L36.8125,142 L29.4219,142 L29.4219,139.8438 L31.8906,139.8438 L31.8906,131.7656 L29.4219,131.7656 Z " fill="#000000"/><text fill="#000000" font-family="sans-serif" font-size="12" font-style="italic" lengthAdjust="spacing" textLength="169" x="47.5" y="140.1543">FileDocumentationPartText</text><line style="stroke:#A80036;stroke-width:1.5;" x1="19.5" x2="218.5" y1="152" y2="152"/><ellipse cx="29.5" cy="163" rx="3" ry="3" style="stroke:#038048;stroke-width:1.0;fill:none;"/><text fill="#000000" font-family="sans-serif" font-size="11" lengthAdjust="spacing" textLength="87" x="38.5" y="166.2104">content : string</text><ellipse cx="29.5" cy="175.8047" rx="3" ry="3" style="stroke:#038048;stroke-width:1.0;fill:none;"/><text fill="#000000" font-family="sans-serif" font-size="11" lengthAdjust="spacing" textLength="122" x="38.5" y="179.0151">isComment : boolean</text><ellipse cx="29.5" cy="188.6094" rx="3" ry="3" style="stroke:#038048;stroke-width:1.0;fill:none;"/><text fill="#000000" font-family="sans-serif" font-size="11" lengthAdjust="spacing" textLength="64" x="38.5" y="191.8198">type : TEXT</text><!--MD5=[d20c64c8aa7f30f702dc1b047016c7bc]
class FileDocumentationPart<TEXT>--><rect codeLine="9" fill="#FEFECE" filter="url(#f1b815svl6yelj)" height="52.8047" id="FileDocumentationPart&lt;TEXT&gt;" style="stroke:#A80036;stroke-width:1.5;" width="224" x="7" y="7"/><ellipse cx="22" cy="23" fill="#B4A7E5" rx="11" ry="11" style="stroke:#A80036;stroke-width:1.0;"/><path d="M17.9219,18.7656 L17.9219,16.6094 L25.3125,16.6094 L25.3125,18.7656 L22.8438,18.7656 L22.8438,26.8438 L25.3125,26.8438 L25.3125,29 L17.9219,29 L17.9219,26.8438 L20.3906,26.8438 L20.3906,18.7656 L17.9219,18.7656 Z " fill="#000000"/><text fill="#000000" font-family="sans-serif" font-size="12" font-style="italic" lengthAdjust="spacing" textLength="192" x="36" y="27.1543">FileDocumentationPart&lt;TEXT&gt;</text><line style="stroke:#A80036;stroke-width:1.5;" x1="8" x2="230" y1="39" y2="39"/><ellipse cx="18" cy="50" rx="3" ry="3" style="stroke:#038048;stroke-width:1.0;fill:none;"/><text fill="#000000" font-family="sans-serif" font-size="11" lengthAdjust="spacing" textLength="64" x="27" y="53.2104">type : TEXT</text><!--MD5=[5c5be0885a310627b1e39d3eb3999fad]
reverse link FileDocumentationPart<TEXT> to FileDocumentationPartText--><path codeLine="12" d="M119,80.49 C119,93.42 119,107.35 119,119.77 " fill="none" id="FileDocumentationPart&lt;TEXT&gt;-backto-FileDocumentationPartText" style="stroke:#A80036;stroke-width:1.0;"/><polygon fill="none" points="112,80.09,119,60.09,126,80.09,112,80.09" style="stroke:#A80036;stroke-width:1.0;"/><!--MD5=[c32ff12c2c9893c5c0c7f082b129e749]
@startuml
skinparam BackgroundColor transparent
hide empty methods
hide empty fields
interface "FileDocumentationPartText" {
    +content : string
    +isComment : boolean
    +type : TEXT
}
interface "FileDocumentationPart<TEXT>" {
    +type : TEXT
}
"FileDocumentationPart<TEXT>" <|- - "FileDocumentationPartText"
@enduml

PlantUML version 1.2021.14(Fri Nov 12 16:46:50 UTC 2021)
(GPL source distribution)
Java Runtime: OpenJDK Runtime Environment
JVM: OpenJDK 64-Bit Server VM
Default Encoding: UTF-8
Language: en
Country: null
--></g></svg>