<?xml version="1.0" encoding="UTF-8" standalone="no"?><svg xmlns="http://www.w3.org/2000/svg" xmlns:xlink="http://www.w3.org/1999/xlink" contentScriptType="application/ecmascript" contentStyleType="text/css" height="199px" preserveAspectRatio="none" style="width:272px;height:199px;background:#00000000;" version="1.1" viewBox="0 0 272 199" width="272px" zoomAndPan="magnify"><defs><filter height="300%" id="fp1em2xl3w9dm" width="300%" x="-1" y="-1"><feGaussianBlur result="blurOut" stdDeviation="2.0"/><feColorMatrix in="blurOut" result="blurOut2" type="matrix" values="0 0 0 0 0 0 0 0 0 0 0 0 0 0 0 0 0 0 .4 0"/><feOffset dx="4.0" dy="4.0" in="blurOut2" result="blurOut3"/><feBlend in="SourceGraphic" in2="blurOut3" mode="normal"/></filter></defs><g><!--MD5=[6f73a0e2b5fa208617f9cf4d231db724]
class FileDocumentationPartNewline--><rect codeLine="4" fill="#FEFECE" filter="url(#fp1em2xl3w9dm)" height="65.6094" id="FileDocumentationPartNewline" style="stroke:#A80036;stroke-width:1.5;" width="223" x="21" y="120"/><ellipse cx="36" cy="136" fill="#B4A7E5" rx="11" ry="11" style="stroke:#A80036;stroke-width:1.0;"/><path d="M31.9219,131.7656 L31.9219,129.6094 L39.3125,129.6094 L39.3125,131.7656 L36.8438,131.7656 L36.8438,139.8438 L39.3125,139.8438 L39.3125,142 L31.9219,142 L31.9219,139.8438 L34.3906,139.8438 L34.3906,131.7656 L31.9219,131.7656 Z " fill="#000000"/><text fill="#000000" font-family="sans-serif" font-size="12" font-style="italic" lengthAdjust="spacing" textLength="191" x="50" y="140.1543">FileDocumentationPartNewline</text><line style="stroke:#A80036;stroke-width:1.5;" x1="22" x2="243" y1="152" y2="152"/><ellipse cx="32" cy="163" rx="3" ry="3" style="stroke:#038048;stroke-width:1.0;fill:none;"/><text fill="#000000" font-family="sans-serif" font-size="11" lengthAdjust="spacing" textLength="87" x="41" y="166.2104">count : number</text><ellipse cx="32" cy="175.8047" rx="3" ry="3" style="stroke:#038048;stroke-width:1.0;fill:none;"/><text fill="#000000" font-family="sans-serif" font-size="11" lengthAdjust="spacing" textLength="84" x="41" y="179.0151">type : NEWLINE</text><!--MD5=[c9bbada319b82a3d67d331f85eadd2be]
class FileDocumentationPart<NEWLINE>--><rect codeLine="8" fill="#FEFECE" filter="url(#fp1em2xl3w9dm)" height="52.8047" id="FileDocumentationPart&lt;NEWLINE&gt;" style="stroke:#A80036;stroke-width:1.5;" width="251" x="7" y="7"/><ellipse cx="22" cy="23" fill="#B4A7E5" rx="11" ry="11" style="stroke:#A80036;stroke-width:1.0;"/><path d="M17.9219,18.7656 L17.9219,16.6094 L25.3125,16.6094 L25.3125,18.7656 L22.8438,18.7656 L22.8438,26.8438 L25.3125,26.8438 L25.3125,29 L17.9219,29 L17.9219,26.8438 L20.3906,26.8438 L20.3906,18.7656 L17.9219,18.7656 Z " fill="#000000"/><text fill="#000000" font-family="sans-serif" font-size="12" font-style="italic" lengthAdjust="spacing" textLength="219" x="36" y="27.1543">FileDocumentationPart&lt;NEWLINE&gt;</text><line style="stroke:#A80036;stroke-width:1.5;" x1="8" x2="257" y1="39" y2="39"/><ellipse cx="18" cy="50" rx="3" ry="3" style="stroke:#038048;stroke-width:1.0;fill:none;"/><text fill="#000000" font-family="sans-serif" font-size="11" lengthAdjust="spacing" textLength="84" x="27" y="53.2104">type : NEWLINE</text><!--MD5=[d46f4c61817184d57d5eee9ee35ac7bf]
reverse link FileDocumentationPart<NEWLINE> to FileDocumentationPartNewline--><path codeLine="11" d="M132.5,80.51 C132.5,93.72 132.5,107.82 132.5,119.98 " fill="none" id="FileDocumentationPart&lt;NEWLINE&gt;-backto-FileDocumentationPartNewline" style="stroke:#A80036;stroke-width:1.0;"/><polygon fill="none" points="125.5,80.29,132.5,60.29,139.5,80.29,125.5,80.29" style="stroke:#A80036;stroke-width:1.0;"/><!--MD5=[21edfb19a94ccc362baff0aaf3c9e5a1]
@startuml
skinparam BackgroundColor transparent
hide empty methods
hide empty fields
interface "FileDocumentationPartNewline" {
    +count : number
    +type : NEWLINE
}
interface "FileDocumentationPart<NEWLINE>" {
    +type : NEWLINE
}
"FileDocumentationPart<NEWLINE>" <|- - "FileDocumentationPartNewline"
@enduml

PlantUML version 1.2021.14(Fri Nov 12 16:46:50 UTC 2021)
(GPL source distribution)
Java Runtime: OpenJDK Runtime Environment
JVM: OpenJDK 64-Bit Server VM
Default Encoding: UTF-8
Language: en
Country: null
--></g></svg>