<?xml version="1.0" encoding="UTF-8" standalone="no"?><svg xmlns="http://www.w3.org/2000/svg" xmlns:xlink="http://www.w3.org/1999/xlink" contentScriptType="application/ecmascript" contentStyleType="text/css" height="289px" preserveAspectRatio="none" style="width:255px;height:289px;background:#00000000;" version="1.1" viewBox="0 0 255 289" width="255px" zoomAndPan="magnify"><defs><filter height="300%" id="f317by13u3b0c" width="300%" x="-1" y="-1"><feGaussianBlur result="blurOut" stdDeviation="2.0"/><feColorMatrix in="blurOut" result="blurOut2" type="matrix" values="0 0 0 0 0 0 0 0 0 0 0 0 0 0 0 0 0 0 .4 0"/><feOffset dx="4.0" dy="4.0" in="blurOut2" result="blurOut3"/><feBlend in="SourceGraphic" in2="blurOut3" mode="normal"/></filter></defs><g><!--MD5=[a88d3daa903d81ad50dccdfcf970b19a]
class FileDocumentationPartValue--><rect codeLine="4" fill="#FEFECE" filter="url(#f317by13u3b0c)" height="155.2422" id="FileDocumentationPartValue" style="stroke:#A80036;stroke-width:1.5;" width="209" x="19.5" y="120"/><ellipse cx="34.5" cy="136" fill="#B4A7E5" rx="11" ry="11" style="stroke:#A80036;stroke-width:1.0;"/><path d="M30.4219,131.7656 L30.4219,129.6094 L37.8125,129.6094 L37.8125,131.7656 L35.3438,131.7656 L35.3438,139.8438 L37.8125,139.8438 L37.8125,142 L30.4219,142 L30.4219,139.8438 L32.8906,139.8438 L32.8906,131.7656 L30.4219,131.7656 Z " fill="#000000"/><text fill="#000000" font-family="sans-serif" font-size="12" font-style="italic" lengthAdjust="spacing" textLength="177" x="48.5" y="140.1543">FileDocumentationPartValue</text><line style="stroke:#A80036;stroke-width:1.5;" x1="20.5" x2="227.5" y1="152" y2="152"/><ellipse cx="30.5" cy="163" rx="3" ry="3" style="stroke:#038048;stroke-width:1.0;fill:none;"/><text fill="#000000" font-family="sans-serif" font-size="11" lengthAdjust="spacing" textLength="108" x="39.5" y="166.2104">description : string</text><ellipse cx="30.5" cy="175.8047" rx="3" ry="3" style="stroke:#038048;stroke-width:1.0;fill:none;"/><text fill="#000000" font-family="sans-serif" font-size="11" lengthAdjust="spacing" textLength="81" x="39.5" y="179.0151">infos : string[]</text><ellipse cx="30.5" cy="188.6094" rx="3" ry="3" style="stroke:#038048;stroke-width:1.0;fill:none;"/><text fill="#000000" font-family="sans-serif" font-size="11" lengthAdjust="spacing" textLength="122" x="39.5" y="191.8198">isComment : boolean</text><ellipse cx="30.5" cy="201.4141" rx="3" ry="3" style="stroke:#038048;stroke-width:1.0;fill:none;"/><text fill="#000000" font-family="sans-serif" font-size="11" lengthAdjust="spacing" textLength="134" x="39.5" y="204.6245">lists : [string, string[]][]</text><ellipse cx="30.5" cy="214.2188" rx="3" ry="3" style="stroke:#038048;stroke-width:1.0;fill:none;"/><text fill="#000000" font-family="sans-serif" font-size="11" lengthAdjust="spacing" textLength="77" x="39.5" y="217.4292">prefix : string</text><ellipse cx="30.5" cy="227.0234" rx="3" ry="3" style="stroke:#038048;stroke-width:1.0;fill:none;"/><text fill="#000000" font-family="sans-serif" font-size="11" lengthAdjust="spacing" textLength="161" x="39.5" y="230.2339">properties : [string, string][]</text><ellipse cx="30.5" cy="239.8281" rx="3" ry="3" style="stroke:#038048;stroke-width:1.0;fill:none;"/><text fill="#000000" font-family="sans-serif" font-size="11" lengthAdjust="spacing" textLength="66" x="39.5" y="243.0386">title : string</text><ellipse cx="30.5" cy="252.6328" rx="3" ry="3" style="stroke:#038048;stroke-width:1.0;fill:none;"/><text fill="#000000" font-family="sans-serif" font-size="11" lengthAdjust="spacing" textLength="71" x="39.5" y="255.8433">type : VALUE</text><ellipse cx="30.5" cy="265.4375" rx="3" ry="3" style="stroke:#038048;stroke-width:1.0;fill:none;"/><text fill="#000000" font-family="sans-serif" font-size="11" lengthAdjust="spacing" textLength="75" x="39.5" y="268.6479">value : string</text><!--MD5=[bd243f942d7ce26aa1b947116197f9d3]
class FileDocumentationPart<VALUE>--><rect codeLine="15" fill="#FEFECE" filter="url(#f317by13u3b0c)" height="52.8047" id="FileDocumentationPart&lt;VALUE&gt;" style="stroke:#A80036;stroke-width:1.5;" width="234" x="7" y="7"/><ellipse cx="22" cy="23" fill="#B4A7E5" rx="11" ry="11" style="stroke:#A80036;stroke-width:1.0;"/><path d="M17.9219,18.7656 L17.9219,16.6094 L25.3125,16.6094 L25.3125,18.7656 L22.8438,18.7656 L22.8438,26.8438 L25.3125,26.8438 L25.3125,29 L17.9219,29 L17.9219,26.8438 L20.3906,26.8438 L20.3906,18.7656 L17.9219,18.7656 Z " fill="#000000"/><text fill="#000000" font-family="sans-serif" font-size="12" font-style="italic" lengthAdjust="spacing" textLength="202" x="36" y="27.1543">FileDocumentationPart&lt;VALUE&gt;</text><line style="stroke:#A80036;stroke-width:1.5;" x1="8" x2="240" y1="39" y2="39"/><ellipse cx="18" cy="50" rx="3" ry="3" style="stroke:#038048;stroke-width:1.0;fill:none;"/><text fill="#000000" font-family="sans-serif" font-size="11" lengthAdjust="spacing" textLength="71" x="27" y="53.2104">type : VALUE</text><!--MD5=[cfe1432278435ad6a3f76f05f4c407d5]
reverse link FileDocumentationPart<VALUE> to FileDocumentationPartValue--><path codeLine="18" d="M124,80.51 C124,92.79 124,106.39 124,119.84 " fill="none" id="FileDocumentationPart&lt;VALUE&gt;-backto-FileDocumentationPartValue" style="stroke:#A80036;stroke-width:1.0;"/><polygon fill="none" points="117,80.17,124,60.17,131,80.17,117,80.17" style="stroke:#A80036;stroke-width:1.0;"/><!--MD5=[2f4607475eaa272322d417750b503f5e]
@startuml
skinparam BackgroundColor transparent
hide empty methods
hide empty fields
interface "FileDocumentationPartValue" {
    +description : string
    +infos : string[]
    +isComment : boolean
    +lists : [string, string[]][]
    +prefix : string
    +properties : [string, string][]
    +title : string
    +type : VALUE
    +value : string
}
interface "FileDocumentationPart<VALUE>" {
    +type : VALUE
}
"FileDocumentationPart<VALUE>" <|- - "FileDocumentationPartValue"
@enduml

PlantUML version 1.2021.14(Fri Nov 12 16:46:50 UTC 2021)
(GPL source distribution)
Java Runtime: OpenJDK Runtime Environment
JVM: OpenJDK 64-Bit Server VM
Default Encoding: UTF-8
Language: en
Country: null
--></g></svg>